# xmcd
#
# Track frame offsets:
#	150
#	21927
#	44565
#	63080
#	78196
#	93343
#	159685
#	174731
#	198524
#	213043
#	217703
#	236875
#	248898
#	261823
#	296367
#
# Disc length: 4398 seconds
#
# Revision: 1
# Processed by: cddbd v1.5.2PL0 Copyright (c) Steve Scherf et al.
# Submitted via: audiograbber 1.83.01
#
DISCID=cd112c0f
DTITLE=The Gord McDonald Band - Most Too Slow
DYEAR=2000
DGENRE=Blues
TTITLE0=Blues On My Mind
TTITLE1=I've Got A Big Black Dog (In My Backyard)
TTITLE2=Blues For Jimmy C.
TTITLE3=Happily Sad: A Reduction Called Love
TTITLE4=All Gone
TTITLE5=The Princely Mean
TTITLE6=Gina's Still Coming Around
TTITLE7=No Hope To Wear (Baker's Dozen Offbeat Blues)
TTITLE8=Derailment
TTITLE9=My Melancholy Spirit
TTITLE10=That Thing Is Coming
TTITLE11=Hurry Home, Now
TTITLE12=Song For Donald And Wallace
TTITLE13=Workingman's Blues
TTITLE14=70 Virgins And 47 Ursa Majoris
EXTD=YEAR: 2000
EXTT0=
EXTT1=
EXTT2=
EXTT3=
EXTT4=
EXTT5=
EXTT6=
EXTT7=
EXTT8=
EXTT9=
EXTT10=
EXTT11=
EXTT12=
EXTT13=
EXTT14=
PLAYORDER=
